<svg width="1155" height="977" viewBox="0 0 1155 977" fill="none" xmlns="http://www.w3.org/2000/svg">
<g clip-path="url(#clip0_111_13)">
<path d="M632.903 274.152C575.11 259.443 514.2 267.005 465.784 294.906C417.368 322.807 380.284 371.715 364.032 429.093C347.146 488.696 354.087 549.709 383.546 600.829C396.862 623.937 421.629 649.39 474.721 693.192C527.812 736.994 582.868 736.418 602.633 730.118C608.301 728.318 614.86 726.061 620.154 723.011C629.281 717.762 636.867 710.206 642.153 701.1L650.288 687.179C658.942 672.012 653.113 653.085 638.001 644.227L486.513 555.434C482.896 553.305 478.892 551.915 474.734 551.344C470.575 550.773 466.345 551.033 462.288 552.109C458.23 553.185 454.427 555.055 451.097 557.61C447.768 560.166 444.979 563.358 442.891 566.999L435.024 580.766C432.004 586.064 429.862 591.816 428.681 597.798C428.541 598.553 428.188 599.251 427.662 599.81C427.136 600.369 426.461 600.765 425.716 600.951C424.971 601.137 424.189 601.105 423.462 600.858C422.736 600.611 422.095 600.161 421.617 599.56C417.789 594.936 414.33 590.018 411.271 584.851C386.152 541.261 380.296 489.04 394.82 437.816C408.844 388.369 440.51 346.403 481.761 322.632C523.012 298.86 575.199 292.504 625.013 305.163C676.615 318.281 718.861 349.531 743.981 393.121C746.901 398.369 749.404 403.838 751.468 409.478C751.748 410.192 751.816 410.972 751.665 411.725C751.514 412.477 751.15 413.17 750.616 413.722C750.082 414.273 749.401 414.659 748.653 414.833C747.906 415.008 747.124 414.963 746.401 414.706C740.633 412.728 734.582 411.698 728.484 411.654L712.629 411.558C708.431 411.538 704.272 412.352 700.391 413.951C696.51 415.55 692.985 417.903 690.02 420.874C687.055 423.845 684.709 427.375 683.118 431.259C681.526 435.143 680.722 439.304 680.75 443.502L681.669 619.062C681.757 636.578 695.21 651.112 712.671 651.229L728.796 651.171C739.324 651.163 749.665 648.388 758.783 643.123C764.077 640.072 769.318 635.529 773.718 631.527C789.079 617.586 817.187 570.226 805.905 502.341C794.624 434.457 785.023 400.252 771.707 377.144C742.248 326.024 692.939 289.426 632.903 274.152Z" fill="#F9F9F9"/>
</g>
<defs>
<clipPath id="clip0_111_13">
<rect width="512" height="512" fill="white" transform="translate(228 395) rotate(-29.9535)"/>
</clipPath>
</defs>
</svg>
